<?xml version="1.0" encoding="UTF-8"?>
<svg id="Capa_2" data-name="Capa 2" xmlns="http://www.w3.org/2000/svg" viewBox="0 0 89.35 72.35">
  <defs>
    <style>
      .cls-1 {
        fill: #8ba281;
      }
    </style>
  </defs>
  <g id="Capa_1-2" data-name="Capa 1">
    <path class="cls-1" d="M73.55,59.64c16.48,0,15.8-15.64,15.79-15.77h0S74.58.04,74.58.04v-.04H14.79v.03l-1.11,3.32L0,43.87h.02c-.04.48-1.14,15.77,15.93,15.77s15.79-15.64,15.79-15.77h0S18.57,4.74,18.57,4.74h23.75v62.87H14.79v4.74h59.79v-4.74h-27.53V4.74h23.76l-13.21,39.13h.02c-.04.48-1.14,15.77,15.93,15.77ZM4.04,43.87L15.88,8.81l11.84,35.06H4.04ZM73.48,8.81l11.84,35.06h-23.67l11.84-35.06Z"/>
  </g>
</svg>