<?xml version="1.0" encoding="UTF-8"?>
<svg id="Capa_2" data-name="Capa 2" xmlns="http://www.w3.org/2000/svg" viewBox="0 0 110.79 89.72">
  <defs>
    <style>
      .cls-1 {
        fill: #fff;
      }
    </style>
  </defs>
  <g id="Capa_1-2" data-name="Capa 1">
    <path class="cls-1" d="M91.21,73.95c20.43,0,19.59-19.4,19.58-19.55h0S92.48.05,92.48.05v-.05H18.34v.04l-1.37,4.12L.01,54.4h.02c-.05.6-1.41,19.55,19.76,19.55s19.59-19.4,19.58-19.55h0S23.03,5.88,23.03,5.88h29.45v77.96H18.34v5.88h74.14v-5.88h-34.13V5.88h29.46l-16.38,48.53h.02c-.05.6-1.41,19.55,19.76,19.55ZM5.01,54.4L19.69,10.92l14.68,43.48H5.01ZM91.11,10.92l14.68,43.48h-29.36l14.68-43.48Z"/>
  </g>
</svg>