<?xml version="1.0" encoding="UTF-8"?>
<svg id="Capa_2" data-name="Capa 2" xmlns="http://www.w3.org/2000/svg" viewBox="0 0 116.89 105.76">
  <defs>
    <style>
      .cls-1 {
        fill: #fff;
      }
    </style>
  </defs>
  <g id="Capa_1-2" data-name="Capa 1">
    <g>
      <path class="cls-1" d="M59.32,26.85c-14.62,0-26.51,11.89-26.51,26.51s11.89,26.51,26.51,26.51,26.51-11.89,26.51-26.51-11.89-26.51-26.51-26.51ZM53.24,72.97c-.31-.6-.9-1.05-1.33-1.38-.05-.04-.1-.08-.14-.11,0-.1-.01-.21-.02-.3-.02-.4-.05-.89-.2-1.37-1.36-4.28-6.45-3.03-9.19-2.36-.03,0-.06.02-.09.02-5.71-6.91-6.62-16.93-2.37-24.71.3.59.57,1.16.62,1.31.19.77.29,1.56.39,2.32.29,2.24.58,4.56,3.04,6.52.76.61,1.57.89,2.28,1.14.59.21,1.1.39,1.42.7.92.91,1.73,2.47,2.58,4.11,2,3.87,4.49,8.68,10.12,6.98,2.49-.75,3.39-2.17,3.71-3.24.83-2.78-1.35-5.81-2.33-6.98-.2-.24-.57-.6-1.04-1.05-.37-.36-1.01-.97-1.46-1.46.52-.18,1.14-.28,1.47-.33.57-.09,1.35-.12,2.17-.15,2.03-.08,4.13-.17,5.44-1.1,1.07-.76,1.66-1.97,1.55-3.16-.18-1.92-2.24-3.34-4.05-4.59-.53-.36-1.29-.89-1.79-1.31.11-.03.21-.06.32-.09,1.15-.33,2.34-.67,3.41-1.54,1.85-1.5,2.63-3.8,2.32-6.83,5.02,2.83,8.82,7.58,10.5,13.15-2.77.24-4.66,1.28-5.51,3.05-.63,1.3-.65,2.66-.68,3.86-.03,1.45-.06,2.7-1,3.77-.24.27-.57.5-.92.73-.79.53-1.87,1.26-2.06,2.89-.18,1.51.27,2.86.66,4.05.36,1.09.7,2.12.56,3.18-.02.16-.12.43-.22.68-.17.43-.36.93-.38,1.45-.02.41.09.79.18,1.13,0,0,0,.02,0,.03-.76.48-2.51,1.39-3.13,1.66-4.46,1.92-9.68,2.29-14.45,1.05-.02-.54-.08-1.12-.41-1.76Z"/>
      <g>
        <path class="cls-1" d="M58.34,99.18c-25.53,0-46.3-20.77-46.3-46.3,0-1.28.06-2.57.16-3.84l5.53,1.49-4.73-17.76L0,45.74l5.76,1.55c-.2,1.85-.3,3.72-.3,5.58,0,29.16,23.72,52.88,52.88,52.88,7.44,0,14.66-1.53,21.44-4.54l-2.67-6.01c-5.94,2.64-12.26,3.98-18.77,3.98Z"/>
        <path class="cls-1" d="M111.1,56.25c.07-1.12.12-2.25.12-3.37C111.22,23.72,87.5,0,58.34,0c-6.67,0-13.2,1.24-19.4,3.69l2.42,6.12c5.43-2.14,11.15-3.23,16.99-3.23,25.53,0,46.3,20.77,46.3,46.3,0,.64-.02,1.28-.05,1.92l-5.64-1.25,5.52,17.53,12.42-13.54-5.79-1.29Z"/>
      </g>
      <path class="cls-1" d="M28.32,14.52c1.51-1.29,2.47-3.2,2.47-5.34,0-3.87-3.15-7.03-7.03-7.03s-7.03,3.15-7.03,7.03c0,2.13.96,4.05,2.47,5.34-2.29,1.42-3.82,3.95-3.82,6.83v7.43h16.75v-7.43c0-2.88-1.53-5.41-3.82-6.83ZM23.76,5.63c1.96,0,3.56,1.6,3.56,3.56s-1.6,3.56-3.56,3.56-3.56-1.6-3.56-3.56,1.6-3.56,3.56-3.56ZM28.67,25.32h-9.81v-3.97c0-2.53,2.06-4.58,4.58-4.58h.65c2.53,0,4.58,2.06,4.58,4.58v3.97Z"/>
      <path class="cls-1" d="M107.29,95c-1-2.02-4.44-3.18-6.47-3.47,2.95-4.84,6.09-11.58,1.56-16.14-1.84-1.86-4.43-2.8-7.09-2.58-2.66.22-5.04,1.57-6.55,3.7-2.79,3.96-1.01,8.63.86,12.26.06.12.26.44.5.84.3.49.85,1.39,1.11,1.88-2.33.23-5.91,1.78-6.68,3.92-.28.79-.3,2.01,1.23,3.34,1.91,1.66,6.39,2.49,10.6,2.49,1.34,0,2.65-.08,3.84-.25,2.4-.34,5.53-1.14,6.78-3.06.67-1.02.77-2.02.3-2.95ZM96.34,92.53s-.06.1-.1.17c-.05.08-.17.29-.27.41-.55-1.05-1.2-2.12-1.84-3.16-1.38-2.25-2.8-4.57-3.36-7.01-.9-3.91,1.41-6.03,3.66-6.65.53-.15,1.1-.22,1.66-.22,2.13,0,4.3,1.07,5.09,3.49.84,2.59-.88,7.2-4.84,12.97ZM93.11,94.59c.25.27.48.72.73,1.18.56,1.06,1.19,2.26,2.38,2.06,1.01-.17,1.7-1.55,2.26-2.66.11-.21.21-.41.3-.58l.15.02c1.84.23,3.73.47,5.12,1.56-2.71,1.98-7.49,1.95-9.48,1.85-2.16-.12-5.01-.53-6.69-1.83,1.47-1.09,3.45-1.37,5.23-1.61Z"/>
      <circle class="cls-1" cx="95.98" cy="81.24" r="1.86"/>
    </g>
  </g>
</svg>