<?xml version="1.0" encoding="UTF-8"?>
<svg id="Capa_2" data-name="Capa 2" xmlns="http://www.w3.org/2000/svg" viewBox="0 0 104.75 86.66">
  <defs>
    <style>
      .cls-1 {
        fill: #fff;
      }
    </style>
  </defs>
  <g id="Capa_1-2" data-name="Capa 1">
    <path class="cls-1" d="M92.16,38.36s0,0,0,0c5.74-3.72,9.55-10.18,9.55-17.51,0-5.03-1.82-9.89-5.13-13.69-3.97-4.55-9.7-7.16-15.72-7.16-10.14,0-18.77,7.24-20.53,17.22,0,0,0,0,0,0-.21,1.21-.32,2.44-.32,3.63,0,7.34,3.81,13.79,9.55,17.51-1.91,1.03-3.67,2.31-5.22,3.8-2.73-3.49-6.98-5.75-11.75-5.75s-9.21,2.35-11.93,5.98c-1.61-1.59-3.45-2.96-5.46-4.04,0,0,0,0,0,0,5.74-3.72,9.55-10.18,9.55-17.51C44.74,9.35,35.39,0,23.89,0S3.04,9.35,3.04,20.85c0,7.33,3.81,13.79,9.55,17.51h0C5.1,42.4,0,50.32,0,59.41v27.25h104.74v-2.21h0v-25.04c0-9.09-5.1-17-12.59-21.04ZM80.85,6.3c3.35,0,6.57,1.16,9.14,3.23,0,0,0,0-.01.01-.05.05-.1.1-.14.16-.23.26-.46.51-.7.75-.1.1-.21.2-.32.31-.19.19-.38.37-.58.55-.12.11-.25.22-.37.33-.19.16-.38.32-.57.48-.13.11-.26.21-.4.31-.19.15-.39.3-.59.44-.14.1-.27.19-.41.29-.21.14-.42.28-.63.41-.13.08-.27.17-.4.25-.24.14-.48.28-.73.41-.11.06-.23.13-.34.19-.36.19-.72.37-1.1.54-.04.02-.08.03-.11.05-.33.15-.67.29-1.01.43-.13.05-.26.09-.39.14-.25.09-.51.18-.77.27-.15.05-.31.09-.46.14-.24.07-.48.14-.73.21-.16.04-.32.08-.49.12-.24.06-.48.11-.73.16-.16.03-.33.07-.49.09-.25.04-.5.08-.76.12-.16.02-.32.05-.48.06-.28.03-.56.06-.84.08-.14.01-.27.03-.41.03-.42.02-.84.04-1.26.04-.51,0-1.01-.02-1.51-.06-.13,0-.27-.02-.4-.03-.43-.04-.85-.09-1.27-.15-.08-.01-.16-.02-.23-.03-.49-.08-.97-.18-1.45-.29-.12-.03-.24-.06-.37-.09-.39-.1-.78-.21-1.16-.33-.07-.02-.15-.04-.22-.07,2.05-5.66,7.46-9.55,13.67-9.55ZM66.45,22.22c.52.14,1.04.27,1.57.38.18.04.36.07.54.1.39.07.78.14,1.17.2.2.03.4.06.6.08.4.05.8.09,1.2.12.18.01.36.03.54.04.57.04,1.15.06,1.73.06.53,0,1.07-.02,1.6-.05.17,0,.34-.03.51-.04.36-.03.72-.06,1.08-.1.19-.02.39-.05.58-.07.34-.05.67-.1,1.01-.16.19-.03.38-.07.58-.1.35-.07.7-.15,1.04-.23.16-.04.33-.07.49-.12.49-.12.97-.26,1.44-.41.02,0,.04-.01.06-.02.49-.16.98-.33,1.47-.51.16-.06.31-.12.46-.19.33-.13.66-.27.98-.41.18-.08.35-.16.53-.24.3-.14.6-.29.9-.44.17-.09.35-.18.52-.27.31-.17.61-.34.91-.52.15-.09.3-.17.44-.26.41-.25.81-.51,1.21-.79.03-.02.06-.04.09-.06.42-.3.84-.61,1.25-.93.13-.1.25-.21.38-.31.28-.23.55-.45.82-.69.15-.13.29-.26.43-.39.25-.23.49-.46.73-.7.14-.14.28-.28.42-.42.08-.08.16-.16.24-.24.94,1.95,1.44,4.11,1.44,6.31,0,8.02-6.53,14.55-14.55,14.55-7.57,0-13.81-5.81-14.49-13.21.03,0,.06.01.08.02ZM79.42,41.66h.03s.02,0,.03,0c.45.03.91.05,1.37.05s.92-.02,1.37-.05c.01,0,.02,0,.03,0h.03c9.16.73,16.38,8.41,16.38,17.75v20.84h-26.37v-.63c0-6.96-3.7-13.09-9.26-16.56v-1.11c2.76-2.7,4.46-6.47,4.46-10.62,0-1.12-.13-2.22-.37-3.27,2.98-3.61,7.36-6.02,12.29-6.41ZM47.79,66.99c1.15-.42,2.38-.7,3.65-.79.38.03.76.05,1.15.05.36,0,.71-.02,1.07-.05h.03c1.14.1,2.24.32,3.28.68,2.4.8,4.49,2.24,6.07,4.11,1.99,2.34,3.19,5.35,3.19,8.63v.63h-27.37v-.63c0-3.09,1.06-5.95,2.85-8.21,1.55-1.99,3.65-3.53,6.07-4.42ZM52.58,42.72c3.32,0,6.2,1.88,7.64,4.64.62,1.19.97,2.54.97,3.97,0,3.14-1.7,5.9-4.22,7.4-1.29.77-2.79,1.21-4.39,1.21-1.79,0-3.45-.55-4.82-1.48-2.28-1.55-3.78-4.17-3.78-7.12,0-1.27.27-2.48.77-3.57,1.36-2.97,4.36-5.05,7.84-5.05ZM23.89,6.3c8.02,0,14.55,6.53,14.55,14.55s-6.53,14.55-14.55,14.55-14.55-6.53-14.55-14.55,6.53-14.55,14.55-14.55ZM6.07,59.41c0-9.34,7.22-17.02,16.38-17.75h.03s.02,0,.03,0c.46.03.91.05,1.37.05s.92-.02,1.37-.05c0,0,.02,0,.03,0h.03c5.12.4,9.64,2.99,12.63,6.82-.18.93-.28,1.88-.28,2.86,0,3.93,1.53,7.52,4.04,10.19v1.76c-5.38,3.49-8.94,9.51-8.94,16.34v.63H6.07v-20.84Z"/>
  </g>
</svg>