<?xml version="1.0" encoding="UTF-8"?>
<svg id="Capa_2" data-name="Capa 2" xmlns="http://www.w3.org/2000/svg" viewBox="0 0 829.48 877.86">
  <defs>
    <style>
      .cls-1 {
        fill: #fff;
      }
    </style>
  </defs>
  <g id="Capa_1-2" data-name="Capa 1">
    <g>
      <path class="cls-1" d="M781.33,643.71c-12.73-9.68-24.54-29.69-35.42-59.96-7.89-21.21-12.73-43.9-14.55-68.13-1.82-24.23-2.71-55.09-2.71-92.67,0-42.97-1.67-106.08-4.99-131.82-3.33-25.74-12.12-47.69-26.36-65.88-14.21-18.16-36.78-28.45-67.67-30.89,26.02-4.22,48.15-10.73,66.31-19.51,18.16-8.78,31.94-19.39,41.34-31.78,9.37-12.42,14.09-26.2,14.09-41.34,0-20.59-5.61-38.63-16.83-54.04-11.19-15.44-27.84-27.25-49.94-35.45-22.13-8.17-49.2-12.24-81.29-12.24H92.95l-6.16,18.49L10.73,243.79l.1.04c-.21,2.65-6.34,87.63,88.6,87.63s87.83-86.99,87.8-87.66h0s0-.03,0-.03h0L111.43,19.21h149.84c37.6.86,65.73,14.35,78.79,47.94.04.09.07.18.11.27,7.56,19.48,7.53,41.06,1.15,60.96-4.29,13.4-11.67,31.51-24.34,54.73l-211.43,384.9-20.84,37.89-3.76,6.84c-16.09,26.02-44.61,35.51-80.95,34.53l.03,19.24h76.92l54.66-98.49,33.91-61.13h186.6v61.83c-6.41,59.8-42.42,80.1-94.69,78.69l.04,19.22h346.02v-19.27c-61.77.37-102.03-26.45-101.94-79.23V204.36h37.24c32.09,0,55.74,8.97,70.87,26.82,15.14,17.85,24.35,40.11,27.71,66.77,3.3,26.63,4.99,91.71,4.99,137.74,0,39.95,1.05,72.97,3.18,99.02,2.1,26.05,7.4,49.94,15.88,71.77,7.28,18.77,17.88,32.55,31.81,41.31,13.9,8.79,29.5,14.24,46.76,16.37,17.26,2.09,39.52,3.17,66.77,3.17h22.72v-9.09c-19.39,0-35.45-4.84-48.15-14.52ZM33.17,243.76L98.99,48.79l65.82,194.97H33.17ZM352.11,484.15h-175.29l175.29-313.76v313.76ZM434.53,647.39h-19.79V19.21h19.79v628.18ZM571.48,181.67h-69.02l-.43-74.26c-.06-9.55.75-19.12,2.97-28.41,8.47-35.43,32.04-57.91,74.91-59.14,1.55-.04,3.13-.01,4.67.11,62.32,4.99,86.56,67.13,61.84,120.81-6.35,12.12-15.88,21.95-28.61,29.53-12.73,7.55-28.15,11.34-46.33,11.34Z"/>
      <g>
        <path class="cls-1" d="M100.32,867.36h54.11v10.49h-65.91v-116.08h11.8v105.59Z"/>
        <path class="cls-1" d="M335.27,877.86h-12.95l50.17-116.08h11.48l49.84,116.08h-13.12l-12.79-30.5h-60.01l-12.62,30.5ZM352.32,836.54h51.15l-25.58-61.65-25.58,61.65Z"/>
        <path class="cls-1" d="M640.88,861.63h.33l29.02-99.85h14.1l29.02,99.85h.33l28.36-99.85h12.46l-34.27,116.08h-13.77l-29.18-99.69h-.33l-29.18,99.69h-13.77l-34.27-116.08h12.46l28.69,99.85Z"/>
      </g>
    </g>
  </g>
</svg>